<svg width="30" height="21" viewBox="0 0 30 21" fill="none" xmlns="http://www.w3.org/2000/svg">
<path d="M10.16 9.704L8.88 12.456H13.36L13.232 9.704C13.1893 8.68 13.1467 7.66667 13.104 6.664C13.0613 5.66133 13.0187 4.60533 12.976 3.496H12.848C12.4 4.56267 11.9627 5.608 11.536 6.632C11.1093 7.63467 10.6507 8.65867 10.16 9.704ZM0.0159999 21L11.024 0.136H16.272L18.352 21H13.776L13.52 15.752H7.312L4.848 21H0.0159999ZM20.4273 21L24.6193 0.136H29.0033L24.8433 21H20.4273Z" fill="#C6007E"/>
<path d="M10.16 9.704L8.88 12.456H13.36L13.232 9.704C13.1893 8.68 13.1467 7.66667 13.104 6.664C13.0613 5.66133 13.0187 4.60533 12.976 3.496H12.848C12.4 4.56267 11.9627 5.608 11.536 6.632C11.1093 7.63467 10.6507 8.65867 10.16 9.704ZM0.0159999 21L11.024 0.136H16.272L18.352 21H13.776L13.52 15.752H7.312L4.848 21H0.0159999ZM20.4273 21L24.6193 0.136H29.0033L24.8433 21H20.4273Z" fill="url(#paint0_linear_24_2)"/>
<defs>
<linearGradient id="paint0_linear_24_2" x1="15.5" y1="-10" x2="15.5" y2="30" gradientUnits="userSpaceOnUse">
<stop stop-color="#D30E8C"/>
<stop offset="0.411458" stop-color="#D30E8C"/>
<stop offset="0.6875" stop-color="#2E3192"/>
<stop offset="1" stop-color="#2E3192"/>
</linearGradient>
</defs>
</svg>
